<?xml version="1.0" standalone="no"?><!DOCTYPE svg PUBLIC "-//W3C//DTD SVG 1.1//EN" "http://www.w3.org/Graphics/SVG/1.1/DTD/svg11.dtd"><svg t="1692231479885" class="icon" viewBox="0 0 1200 1024" version="1.1" xmlns="http://www.w3.org/2000/svg" p-id="1571" xmlns:xlink="http://www.w3.org/1999/xlink" width="234.375" height="200"><path d="M1184.485517 231.212138c-11.758345-22.810483-32.73269-40.854069-59.003586-50.705655L693.918897 18.714483c-55.790345-27.648-140.25269-21.645241-184.637794-1.165242L75.069793 180.506483c-26.306207 9.886897-47.315862 27.895172-58.968276 50.635034a145.160828 145.160828 0 0 0-0.03531 132.696276c11.723034 22.810483 32.697379 40.783448 58.968276 50.705655l42.231172 15.819035v364.861793h-23.763862a1.200552 1.200552 0 0 0-1.200552 1.200552v203.387586c0 0.635586 0.529655 1.200552 1.200552 1.200552h109.250207a1.200552 1.200552 0 0 0 1.165241-1.200552v-203.387586a1.200552 1.200552 0 0 0-1.165241-1.200552h-28.248276v-343.393104l46.009379 17.266759v222.313931c0 76.446897 216.876138 138.063448 396.429242 138.063448s396.429241-61.616552 396.429241-138.063448v-234.813793l112.075035-42.054621c26.306207-9.851586 47.280552-27.895172 59.074207-50.705655a145.125517 145.125517 0 0 0-0.035311-132.625655zM957.016276 686.786207c-11.864276 21.892414-147.138207 85.168552-340.073931 85.168552s-328.244966-63.311448-339.191173-80.507587v-200.845241l231.212138 86.757517c25.741241 10.381241 56.496552 15.536552 88.311173 15.536552 31.602759 0 64.229517-5.08469 93.996138-15.39531l265.25131-99.575173 0.494345 208.86069z m176.622345-349.360552c-5.12 9.957517-15.39531 18.361379-28.177655 23.163586l-433.540414 162.78069c-46.256552 15.889655-103.176828 16.136828-141.947586 0.459035L95.055448 360.553931c-12.747034-4.766897-23.022345-13.206069-28.142345-23.163586a87.181241 87.181241 0 0 1 0.035311-79.766069c5.08469-9.922207 15.36-18.361379 28.107034-23.128276L531.244138 70.62069c17.160828-7.909517 43.502345-12.676414 70.444138-12.676414 24.964414 0 50.423172 4.096 69.561379 13.488552l434.246621 163.027862c12.747034 4.766897 22.987034 13.206069 28.142345 23.128276 12.817655 24.964414 12.817655 54.731034 0 79.801379z" fill="#1296db" p-id="1572"></path></svg>